<?xml version="1.0" encoding="utf-8"?>
<!-- Svg Vector Icons : http://www.onlinewebfonts.com/icon -->
<!DOCTYPE svg PUBLIC "-//W3C//DTD SVG 1.1//EN" "http://www.w3.org/Graphics/SVG/1.1/DTD/svg11.dtd">
<svg version="1.1" xmlns="http://www.w3.org/2000/svg" xmlns:xlink="http://www.w3.org/1999/xlink" x="0px" y="0px" viewBox="0 0 256 256" enable-background="new 0 0 256 256" xml:space="preserve">
<metadata> Svg Vector Icons : http://www.onlinewebfonts.com/icon </metadata>
<g><g><path fill="#000000" d="M214.4,163.8l31.6-51.4h-22.1c-7.6-51.7-52.4-91.3-106.4-91.3C58.1,21.1,10,69,10,128c0,59,48.1,106.9,107.5,106.9c37.1,0,69.7-18.6,89.1-47l-16.8-9c-16,22.5-42.4,37.1-72.2,37.1C68.6,216,29,176.6,29,128c0-48.6,39.6-88,88.5-88c43.5,0,79.7,31.3,87.2,72.4h-22L214.4,163.8z"/></g></g>
</svg>